<?xml version="1.0" encoding="UTF-8"?>
<svg xmlns="http://www.w3.org/2000/svg" viewBox="0 0 668 145" width="668" height="145" role="img" aria-label="NextPress">
  <title>NextPress</title>
  <g transform="translate(0,145) scale(0.1,-0.1)" stroke="none">
    <g fill="#2A3A5B">
<path d="M2280 1170 l0 -110 -60 0 -60 0 0 -63 0 -63 38 2 c20 1 49 -1 65 -3
l27 -5 0 -222 c0 -305 26 -346 217 -346 l83 0 0 60 0 60 -59 0 c-106 0 -106 0
-106 247 l0 208 83 3 82 3 0 59 0 60 -85 0 -85 0 0 110 0 110 -70 0 -70 0 0
-110z"/>
<path d="M285 1061 c-42 -10 -86 -35 -109 -60 -28 -30 -36 -26 -36 19 l0 40
-65 0 -65 0 0 -350 0 -350 70 0 70 0 0 218 c1 303 44 378 207 359 119 -13 137
-57 141 -344 l3 -233 65 0 65 0 -3 262 -3 263 -30 54 c-59 106 -179 153 -310
122z"/>
<path d="M987 1060 c-213 -54 -317 -311 -212 -526 111 -226 482 -242 608 -26
l17 30 -61 21 -62 21 -37 -39 c-97 -99 -283 -76 -339 43 -42 88 -62 81 248 84
l274 2 -5 78 c-14 222 -213 367 -431 312z m193 -138 c35 -18 100 -101 100
-128 0 -11 -36 -14 -200 -14 -174 0 -200 2 -200 15 0 45 77 129 128 141 15 3
32 7 37 10 20 7 100 -7 135 -24z"/>
<path d="M3827 1056 c-42 -16 -107 -57 -107 -68 0 -5 -4 -8 -10 -8 -5 0 -10
18 -10 40 l0 40 -65 0 -65 0 0 -482 0 -483 65 3 65 4 0 169 c0 93 3 169 6 169
3 0 21 -12 39 -26 149 -113 388 -45 469 135 130 289 -114 609 -387 507z m169
-135 c104 -47 146 -197 90 -318 -76 -162 -318 -141 -366 32 -55 196 106 363
276 286z"/>
<path d="M4610 1055 c-25 -8 -63 -30 -84 -50 -48 -44 -46 -44 -46 10 l0 45
-65 0 -65 0 0 -350 0 -351 68 3 67 3 5 215 c6 238 10 256 72 304 39 29 111 50
144 42 24 -6 24 -5 24 69 l0 75 -37 -1 c-21 0 -58 -7 -83 -14z"/>
<path d="M4994 1061 c-311 -80 -340 -567 -41 -679 159 -60 356 -4 427 122 26
45 23 49 -54 67 -48 12 -49 11 -74 -21 -92 -118 -307 -78 -357 66 -19 56 -28
54 267 54 l271 0 -6 73 c-17 231 -213 375 -433 318z m190 -136 c40 -19 96 -93
96 -127 0 -17 -14 -18 -195 -18 -213 0 -211 -1 -181 58 51 98 175 137 280 87z"/>
<path d="M5642 1051 c-90 -31 -132 -90 -132 -186 0 -121 45 -161 220 -201 158
-35 180 -49 180 -108 0 -108 -253 -106 -284 2 -9 32 -9 32 -74 32 l-65 0 6
-46 c24 -219 468 -258 538 -47 49 148 -30 239 -247 287 -132 29 -163 56 -138
121 31 80 254 46 254 -39 0 -13 12 -16 66 -16 l67 0 -7 41 c-23 146 -205 222
-384 160z"/>
<path d="M6295 1061 c-101 -25 -155 -94 -155 -196 0 -120 47 -162 221 -201
159 -35 209 -79 162 -142 -57 -77 -232 -56 -264 32 l-13 36 -64 0 -65 0 7 -42
c42 -268 546 -249 546 20 0 127 -68 180 -280 222 -109 21 -153 77 -100 130 62
62 240 22 240 -55 0 -12 14 -15 66 -15 l66 0 -7 38 c-26 142 -181 216 -360
173z"/>
<path d="M1456 1048 c4 -7 44 -62 89 -123 44 -60 97 -133 117 -161 l37 -51
-124 -170 c-148 -203 -143 -183 -46 -183 l79 0 84 116 c45 64 87 117 93 118 5
1 47 -52 93 -116 l83 -118 86 0 c67 0 83 3 75 13 -5 6 -53 73 -107 147 -54 74
-108 149 -121 165 l-23 30 119 165 c142 196 138 180 42 180 l-78 0 -83 -115
c-45 -63 -84 -115 -86 -115 -2 0 -41 52 -86 115 l-82 115 -84 0 c-65 0 -82 -3
-77 -12z"/>
    </g>
    <g fill="#2B944F">
<path d="M2822 1373 l3 -68 49 -6 c57 -6 106 -50 107 -97 0 -15 2 -94 4 -177
4 -190 31 -260 117 -299 11 -5 11 -7 0 -12 -90 -41 -113 -107 -116 -324 -3
-211 -20 -250 -110 -250 -50 0 -56 -8 -56 -77 l0 -66 79 6 c85 5 135 24 177
65 54 54 58 73 64 282 7 244 23 280 123 297 l37 6 0 67 0 67 -41 7 c-95 15
-119 76 -119 297 0 267 -64 349 -271 349 l-50 0 3 -67z"/>
    </g>
  </g>
</svg>
